<mxfile host="65bd71144e">
    <diagram name="Страница — 1" id="NKm2Fh7igrNM9elNS_53">
        <mxGraphModel dx="1242" dy="571" grid="1" gridSize="10" guides="1" tooltips="1" connect="1" arrows="1" fold="1" page="1" pageScale="1" pageWidth="827" pageHeight="1169" math="0" shadow="0">
            <root>
                <mxCell id="0"/>
                <mxCell id="1" parent="0"/>
                <mxCell id="5KJkYA16pewE1ucpvy-T-5" value="Просмотреть список новостей&amp;nbsp;" style="ellipse;whiteSpace=wrap;html=1;" parent="1" vertex="1">
                    <mxGeometry x="239" y="110" width="241" height="80" as="geometry"/>
                </mxCell>
                <mxCell id="22" style="edgeStyle=none;html=1;entryX=0;entryY=0.5;entryDx=0;entryDy=0;fontColor=#FFFFFF;endArrow=none;endFill=0;" parent="1" source="5KJkYA16pewE1ucpvy-T-13" target="10" edge="1">
                    <mxGeometry relative="1" as="geometry"/>
                </mxCell>
                <mxCell id="23" style="edgeStyle=none;html=1;entryX=0;entryY=0.5;entryDx=0;entryDy=0;fontColor=#FFFFFF;endArrow=none;endFill=0;" parent="1" source="5KJkYA16pewE1ucpvy-T-13" target="11" edge="1">
                    <mxGeometry relative="1" as="geometry"/>
                </mxCell>
                <mxCell id="24" style="edgeStyle=none;html=1;entryX=0;entryY=0.5;entryDx=0;entryDy=0;fontColor=#FFFFFF;endArrow=none;endFill=0;" parent="1" source="5KJkYA16pewE1ucpvy-T-13" target="12" edge="1">
                    <mxGeometry relative="1" as="geometry"/>
                </mxCell>
                <mxCell id="25" style="edgeStyle=none;html=1;entryX=0;entryY=0.5;entryDx=0;entryDy=0;fontColor=#FFFFFF;endArrow=none;endFill=0;" parent="1" source="5KJkYA16pewE1ucpvy-T-13" target="13" edge="1">
                    <mxGeometry relative="1" as="geometry"/>
                </mxCell>
                <mxCell id="27" style="edgeStyle=none;html=1;entryX=0;entryY=0.5;entryDx=0;entryDy=0;fontColor=#FFFFFF;endArrow=none;endFill=0;" parent="1" source="5KJkYA16pewE1ucpvy-T-13" target="26" edge="1">
                    <mxGeometry relative="1" as="geometry"/>
                </mxCell>
                <mxCell id="28" style="edgeStyle=none;html=1;fontColor=#FFFFFF;endArrow=block;endFill=0;" parent="1" source="5KJkYA16pewE1ucpvy-T-13" target="5KJkYA16pewE1ucpvy-T-1" edge="1">
                    <mxGeometry relative="1" as="geometry"/>
                </mxCell>
                <mxCell id="5KJkYA16pewE1ucpvy-T-13" value="Администратор" style="shape=umlActor;verticalLabelPosition=bottom;verticalAlign=top;html=1;" parent="1" vertex="1">
                    <mxGeometry x="40" y="505" width="80" height="80" as="geometry"/>
                </mxCell>
                <mxCell id="2" value="Посмотреть новость детально" style="ellipse;whiteSpace=wrap;html=1;" parent="1" vertex="1">
                    <mxGeometry x="550" y="110" width="241" height="80" as="geometry"/>
                </mxCell>
                <mxCell id="10" value="Удалить новость&amp;nbsp;" style="ellipse;whiteSpace=wrap;html=1;" parent="1" vertex="1">
                    <mxGeometry x="239" y="220" width="241" height="80" as="geometry"/>
                </mxCell>
                <mxCell id="11" value="Добавить новость" style="ellipse;whiteSpace=wrap;html=1;" parent="1" vertex="1">
                    <mxGeometry x="239" y="360" width="241" height="80" as="geometry"/>
                </mxCell>
                <mxCell id="12" value="Отменить публикацию новости" style="ellipse;whiteSpace=wrap;html=1;" parent="1" vertex="1">
                    <mxGeometry x="239" y="504.5" width="241" height="80" as="geometry"/>
                </mxCell>
                <mxCell id="13" value="Поместить новость в Архив" style="ellipse;whiteSpace=wrap;html=1;" parent="1" vertex="1">
                    <mxGeometry x="239" y="640" width="241" height="80" as="geometry"/>
                </mxCell>
                <mxCell id="18" value="&amp;lt;&amp;lt;include&amp;gt;&amp;gt;" style="html=1;verticalAlign=bottom;labelBackgroundColor=none;endArrow=open;endFill=0;dashed=1;rounded=0;exitX=1;exitY=0.5;exitDx=0;exitDy=0;entryX=0;entryY=0.5;entryDx=0;entryDy=0;" parent="1" source="5KJkYA16pewE1ucpvy-T-5" target="2" edge="1">
                    <mxGeometry x="-0.004" width="160" relative="1" as="geometry">
                        <mxPoint x="506.8899999999984" y="130" as="sourcePoint"/>
                        <mxPoint x="413.99910415543934" y="261.06408388335444" as="targetPoint"/>
                        <mxPoint as="offset"/>
                    </mxGeometry>
                </mxCell>
                <mxCell id="20" style="edgeStyle=none;html=1;entryX=0;entryY=0.5;entryDx=0;entryDy=0;fontColor=#FFFFFF;endArrow=none;endFill=0;" parent="1" source="5KJkYA16pewE1ucpvy-T-1" target="5KJkYA16pewE1ucpvy-T-5" edge="1">
                    <mxGeometry relative="1" as="geometry"/>
                </mxCell>
                <mxCell id="5KJkYA16pewE1ucpvy-T-1" value="Сотрудник" style="shape=umlActor;verticalLabelPosition=bottom;verticalAlign=top;html=1;fontColor=default;" parent="1" vertex="1">
                    <mxGeometry x="40" y="110" width="80" height="80" as="geometry"/>
                </mxCell>
                <mxCell id="26" value="Опубликовать новость" style="ellipse;whiteSpace=wrap;html=1;" parent="1" vertex="1">
                    <mxGeometry x="239" y="770" width="241" height="80" as="geometry"/>
                </mxCell>
            </root>
        </mxGraphModel>
    </diagram>
</mxfile>